# xmcd
#
# Track frame offsets:
#	150
#	19825
#	40462
#	68527
#	90595
#	109266
#	128147
#	146205
#	165831
#	185296
#	208506
#	225596
#	238942
#	254882
#	274258
#
# Disc length: 3922 seconds
# Revision: 0
# Processed by: cddbd v1.5.2PL0 Copyright (c) Steve Scherf et al.
# Submitted via: dBpowerAMP V12.0
#
DISCID=d70f500f
DTITLE=Matt Taylor - From The Wilderness Mk 2
DYEAR=2017
DGENRE=Blues
TTITLE0=Smokey Whipped a Sixpence Off my Tongue
TTITLE1=Generation OOO
TTITLE2=Because We Can
TTITLE3=Adelaide River
TTITLE4=Little Ones And Big Ones
TTITLE5=Sensible Shoes
TTITLE6=Broken Dreams
TTITLE7=3 Weeks
TTITLE8=The Sound of DNA Unravelling
TTITLE9=Babel
TTITLE10=Lantana
TTITLE11=Mobile Girl
TTITLE12=A Tribute to Them
TTITLE13=Sentiment
TTITLE14=Bonus Smokey Whipped a Sixpence Off My Tongue
EXTD=
EXTT0=
EXTT1=
EXTT2=
EXTT3=
EXTT4=
EXTT5=
EXTT6=
EXTT7=
EXTT8=
EXTT9=
EXTT10=
EXTT11=
EXTT12=
EXTT13=
EXTT14=
PLAYORDER=
